# xmcd
#
# Track frame offsets:
# 150
# 17788
# 32427
# 48268
# 84783
# 91366
# 98710
# 112140
# 122142
# 137004
# 154320
# 170708
# 184069
# 208395
# 223716
# 240635
# 256431
#
# Disc length: 3655 seconds
#
#
# Revision: 0
# Processed by: cddbd v1.5.1PL2 Copyright (c) Steve Scherf et al.
# Submitted via: FreeRIP 2.942 
#
DISCID=ee0e4511
DTITLE=Don e Juan - Don e Juan Ao Vivo
DYEAR=1900
DGENRE=sertanejo
TTITLE0=Magia e Misterio
TTITLE1=Porta Retrato
TTITLE2=Mil Razoes
TTITLE3=Como um Anjo, Sem medo de ser feliz, Voce vai ver
TTITLE4=Fio de Cabelo
TTITLE5=Boate Azul
TTITLE6=Telefone Mudo
TTITLE7=60 dias Apaixonado
TTITLE8=Saudade da Minha Terra
TTITLE9=E amor demais, Anjo, Volta pra Mim
TTITLE10=Porque Sera
TTITLE11=Apaziguar
TTITLE12=Credo em Cruz, E pra la que eu vou
TTITLE13=Barquinho
TTITLE14=Oh trem bao, Galera Felicidade
TTITLE15=Porque sera
TTITLE16=Dois Amantes
EXTD=
EXTT0=
EXTT1=
EXTT2=
EXTT3=
EXTT4=
EXTT5=
EXTT6=
EXTT7=
EXTT8=
EXTT9=
EXTT10=
EXTT11=
EXTT12=
EXTT13=
EXTT14=
EXTT15=
EXTT16=
PLAYORDER=
